<svg width="11" height="12" viewBox="0 0 11 12" fill="none" xmlns="http://www.w3.org/2000/svg">
<path fill-rule="evenodd" clip-rule="evenodd" d="M5.5 0.0859375C8.53765 0.0859375 11 2.6104 11 5.72505C11 8.216 9.4259 10.3291 7.24185 11.0755C6.963 11.131 6.864 10.9549 6.864 10.8048C6.864 10.6189 6.8706 10.0117 6.8706 9.25708C6.8706 8.73128 6.6946 8.38811 6.49715 8.21321C7.722 8.07351 9.009 7.59661 9.009 5.43071C9.009 4.81471 8.7956 4.31204 8.4425 3.91714C8.4997 3.77469 8.68835 3.20111 8.3886 2.42451C8.3886 2.42451 7.9277 2.27341 6.87775 3.00271C6.4383 2.87786 5.9675 2.81504 5.5 2.81284C5.0325 2.81504 4.56225 2.87786 4.12335 3.00271C3.0723 2.27341 2.6103 2.42451 2.6103 2.42451C2.31165 3.20111 2.5003 3.77469 2.55695 3.91714C2.2055 4.31204 1.99045 4.81471 1.99045 5.43071C1.99045 7.59111 3.2747 8.07532 4.49625 8.21777C4.33895 8.35857 4.1965 8.60696 4.147 8.97161C3.8335 9.11571 3.0371 9.3651 2.5465 8.50325C2.5465 8.50325 2.25555 7.96143 1.70335 7.92183C1.70335 7.92183 1.1671 7.9147 1.66595 8.2645C1.66595 8.2645 2.0262 8.43775 2.27645 9.0895C2.27645 9.0895 2.5993 10.096 4.1294 9.75498C4.13215 10.2263 4.1371 10.6706 4.1371 10.8048C4.1371 10.9538 4.0359 11.1283 3.76145 11.076C1.57575 10.3308 0 8.21655 0 5.72505C0 2.6104 2.4629 0.0859375 5.5 0.0859375Z" fill="white"/>
</svg>
