<svg width="11" height="11" viewBox="0 0 11 11" fill="none" xmlns="http://www.w3.org/2000/svg">
<path d="M6.424 0.893937C7.312 0.893937 8.084 1.06194 8.74 1.39794C9.396 1.73394 9.9 2.20594 10.252 2.81394C10.604 3.41394 10.78 4.10994 10.78 4.90194C10.78 5.53394 10.676 6.14194 10.468 6.72594C10.26 7.30194 9.956 7.76994 9.556 8.12994C9.164 8.48994 8.704 8.66994 8.176 8.66994C7.776 8.66994 7.468 8.56994 7.252 8.36994C7.036 8.16994 6.912 7.89794 6.88 7.55394C6.632 7.89794 6.316 8.16994 5.932 8.36994C5.556 8.56994 5.156 8.66994 4.732 8.66994C4.124 8.66994 3.644 8.48594 3.292 8.11794C2.948 7.74194 2.776 7.23794 2.776 6.60594C2.776 6.00594 2.9 5.44594 3.148 4.92594C3.404 4.40594 3.756 3.98994 4.204 3.67794C4.652 3.35794 5.16 3.19794 5.728 3.19794C6.488 3.19794 7 3.48594 7.264 4.06194L7.396 3.31794H8.344L7.744 6.78594C7.72 6.93794 7.708 7.07794 7.708 7.20594C7.708 7.68594 7.92 7.92594 8.344 7.92594C8.664 7.92594 8.94 7.77394 9.172 7.46994C9.412 7.16594 9.592 6.78594 9.712 6.32994C9.832 5.86594 9.892 5.40994 9.892 4.96194C9.892 3.91394 9.576 3.10194 8.944 2.52594C8.32 1.94994 7.436 1.66194 6.292 1.66194C5.34 1.66194 4.48 1.89394 3.712 2.35794C2.952 2.81394 2.356 3.44194 1.924 4.24194C1.492 5.04194 1.276 5.92594 1.276 6.89394C1.268 7.94994 1.584 8.76194 2.224 9.32994C2.864 9.90594 3.752 10.1939 4.888 10.1939C5.64 10.1939 6.304 10.0579 6.88 9.78594L7.024 10.5299C6.312 10.8259 5.528 10.9739 4.672 10.9739C3.816 10.9739 3.06 10.8099 2.404 10.4819C1.756 10.1619 1.252 9.69794 0.892 9.08994C0.54 8.48994 0.364 7.78994 0.364 6.98994C0.364 5.86194 0.624 4.83394 1.144 3.90594C1.664 2.96994 2.384 2.23394 3.304 1.69794C4.232 1.16194 5.272 0.893937 6.424 0.893937ZM5.056 7.81794C5.416 7.81794 5.748 7.71394 6.052 7.50594C6.356 7.28994 6.596 7.00194 6.772 6.64194C6.948 6.27394 7.036 5.87394 7.036 5.44194C7.036 5.02594 6.92 4.68994 6.688 4.43394C6.464 4.16994 6.144 4.03794 5.728 4.03794C5.344 4.03794 5.004 4.15394 4.708 4.38594C4.42 4.60994 4.196 4.90994 4.036 5.28594C3.876 5.65394 3.796 6.03794 3.796 6.43794C3.796 6.86194 3.904 7.19794 4.12 7.44594C4.336 7.69394 4.648 7.81794 5.056 7.81794Z" fill="white"/>
</svg>
