<svg width="13" height="11" viewBox="0 0 13 11" fill="none" xmlns="http://www.w3.org/2000/svg">
<path d="M13 3.28516V9.33519C13 9.66671 12.863 9.98465 12.6192 10.2191C12.3754 10.4535 12.0448 10.5852 11.7 10.5852H1.3C0.955218 10.5852 0.624558 10.4535 0.380761 10.2191C0.136964 9.98465 0 9.66671 0 9.33519V3.51641L1.3 4.19766L6.188 6.76017C6.28382 6.80991 6.39111 6.8357 6.5 6.83517C6.61446 6.83403 6.72657 6.80385 6.825 6.74767L11.7 4.01641L13 3.28516Z" fill="white"/>
<path d="M13 1.83594L11.7 2.57345L6.5 5.49221L1.3 2.77345L0 2.08594V1.83594C0 1.50442 0.136964 1.18648 0.380761 0.952056C0.624558 0.717634 0.955218 0.585938 1.3 0.585938H11.7C12.0448 0.585938 12.3754 0.717634 12.6192 0.952056C12.863 1.18648 13 1.50442 13 1.83594Z" fill="white"/>
</svg>
